<svg id="svg" xmlns="http://www.w3.org/2000/svg" xmlns:xlink="http://www.w3.org/1999/xlink" width="400" height="400" viewBox="0, 0, 400,400" version="1.1"><g id="svgg"><path id="path0" d="M100.926 41.862 C -49.892 117.226,58.210 349.310,213.096 282.680 L 233.986 273.693 284.762 324.346 C 341.776 381.224,339.356 379.996,357.516 361.260 C 375.478 342.728,377.201 346.086,320.654 289.403 L 270.474 239.103 281.030 216.426 C 333.509 103.685,212.303 -13.794,100.926 41.862 M193.750 78.662 C 253.328 105.992,267.582 177.361,222.471 222.471 C 177.361 267.582,105.992 253.328,78.662 193.750 C 53.819 139.595,99.500 71.016,160.417 71.016 C 169.583 71.016,184.583 74.457,193.750 78.662 " stroke="none" fill="#000000" fill-rule="evenodd"></path></g></svg>